# xmcd
#
# Track frame offsets: 
#        150
#        15480
#        31212
#        44786
#        57717
#        72970
#        87488
#        104645
#        120809
#        134938
#        150573
#        163222
#        177645
#
# Disc length: 2678 seconds
#
# Revision: 0
# Processed by: cddbd v1.5.2PL0 Copyright (c) Steve Scherf et al.
# Submitted via: ExactAudioCopy v0.99pb4
#
DISCID=c00a740d
DTITLE=SUFFERAGE - Death Nation Anarchy
DYEAR=2009
DGENRE=Death Metal
TTITLE0=Principle of Ignorance
TTITLE1=Clone Faces Breeding 
TTITLE2=Death Nation Anarchy 
TTITLE3=Empty Sucked Existence 
TTITLE4=Deprivation of the Despised 
TTITLE5=Infested By Terror 
TTITLE6=Cadaver Evolution 
TTITLE7=Nothingness 
TTITLE8=Insanity Prevailing 
TTITLE9=Who Wins Who Suffer 
TTITLE10=Parasitic Elite 
TTITLE11=Martyrs Birth
TTITLE12=Population Prefers Betrayal 
EXTD=
EXTT0=
EXTT1=
EXTT2=
EXTT3=
EXTT4=
EXTT5=
EXTT6=
EXTT7=
EXTT8=
EXTT9=
EXTT10=
EXTT11=
EXTT12=
PLAYORDER=
